<svg xmlns="http://www.w3.org/2000/svg" xmlns:xlink="http://www.w3.org/1999/xlink" version="1.1" x="0px" y="0px" viewBox="0 0 100 125" style="enable-background:new 0 0 100 100;" xml:space="preserve"><path d="M18.5898438,66.7070312c0.5527344,0,1-0.4477539,1-1v-4.1206055c0-0.5522461-0.4472656-1-1-1s-1,0.4477539-1,1v4.1206055  C17.5898438,66.2592773,18.0371094,66.7070312,18.5898438,66.7070312z"/><path d="M80.7392578,73.9174805h-8.609375c-0.5527344,0-1,0.4477539-1,1v8.9990234c0,0.5522461,0.4472656,1,1,1h8.609375  c0.5527344,0,1-0.4477539,1-1v-8.9990234C81.7392578,74.3652344,81.2919922,73.9174805,80.7392578,73.9174805z   M79.7392578,82.9165039h-6.609375v-6.9990234h6.609375V82.9165039z"/><path d="M66.2070312,73.9174805h-8.609375c-0.5527344,0-1,0.4477539-1,1v8.9990234c0,0.5522461,0.4472656,1,1,1h8.609375  c0.5527344,0,1-0.4477539,1-1v-8.9990234C67.2070312,74.3652344,66.7597656,73.9174805,66.2070312,73.9174805z   M65.2070312,82.9165039h-6.609375v-6.9990234h6.609375V82.9165039z"/><path d="M51.6757812,73.9174805h-8.609375c-0.5527344,0-1,0.4477539-1,1v8.9990234c0,0.5522461,0.4472656,1,1,1h8.609375  c0.5527344,0,1-0.4477539,1-1v-8.9990234C52.6757812,74.3652344,52.2285156,73.9174805,51.6757812,73.9174805z   M50.6757812,82.9165039h-6.609375v-6.9990234h6.609375V82.9165039z"/><path d="M89.9970703,36.2104492l-2.03125-25.2905273C87.9238281,10.4003906,87.4902344,10,86.96875,10h-73.9375  c-0.5214844,0-0.9550781,0.4003906-0.9970703,0.9199219l-2.03125,25.2905273  c-0.0029907,0.0371704,0.0126953,0.0717773,0.013855,0.1087036C10.0142822,36.3480225,10,36.3728027,10,36.4023438  c0,1.8655396,0.8865356,3.5258179,2.2587891,4.5966797V89c0,0.5522461,0.4472656,1,1,1h73.734375c0.5527344,0,1-0.4477539,1-1  V40.7901001C89.2202759,39.7180786,90,38.1507568,90,36.4023438c0-0.029541-0.0142822-0.0543823-0.0167847-0.083252  C89.984375,36.2821655,90.000061,36.2476196,89.9970703,36.2104492z M84.125,40.2470703  c-1.8273315,0-3.3538208-1.2651978-3.7603149-2.956543h7.5206299C87.4788208,38.9818726,85.9523315,40.2470703,84.125,40.2470703z   M35.375,40.2470703c-1.8273315,0-3.3538208-1.2651978-3.7603149-2.956543h7.5206299  C38.7288208,38.9818726,37.2023315,40.2470703,35.375,40.2470703z M12.1146851,37.2905273h7.5206299  c-0.4064941,1.6913452-1.9329834,2.956543-3.7603149,2.956543S12.5211792,38.9818726,12.1146851,37.2905273z M70.5,35.2905273V12  h7.921875v23.2905273H70.5z M68.5,35.2905273h-7.75V12h7.75V35.2905273z M58.75,35.2905273h-7.7626953V12H58.75V35.2905273z   M48.9873047,35.2905273H41.25V12h7.7373047V35.2905273z M39.25,35.2905273H31.5V12h7.75V35.2905273z M29.5,35.2905273h-7.75V12  h7.75V35.2905273z M29.3853149,37.2905273c-0.4064941,1.6913452-1.9329834,2.956543-3.7603149,2.956543  s-3.3538208-1.2651978-3.7603149-2.956543H29.3853149z M48.8853149,37.2905273  c-0.4064941,1.6913452-1.9329834,2.956543-3.7603149,2.956543s-3.3538208-1.2651978-3.7603149-2.956543H48.8853149z   M58.6353149,37.2905273c-0.4064941,1.6913452-1.9329834,2.956543-3.7603149,2.956543s-3.3538208-1.2651978-3.7603149-2.956543  H58.6353149z M68.3853149,37.2905273c-0.4064941,1.6913452-1.9329834,2.956543-3.7603149,2.956543  s-3.3538208-1.2651978-3.7603149-2.956543H68.3853149z M78.1353149,37.2905273  c-0.4064941,1.6913452-1.9329834,2.956543-3.7603149,2.956543s-3.3538208-1.2651978-3.7603149-2.956543H78.1353149z   M87.9160156,35.2905273H80.421875V12h5.6240234L87.9160156,35.2905273z M13.9541016,12H19.75v23.2905273h-7.6660156L13.9541016,12z   M15.875,42.2470703c2.027832,0,3.8187866-1.027832,4.875-2.5870361c1.0562134,1.5592041,2.847168,2.5870361,4.875,2.5870361  s3.8187866-1.027832,4.875-2.5870361c1.0562134,1.5592041,2.847168,2.5870361,4.875,2.5870361  c0.1710815,0,0.3394165-0.0111694,0.5068359-0.0255127v39.1119385H14.2587891V42.0168457  C14.7730103,42.1636353,15.3140259,42.2470703,15.875,42.2470703z M14.2587891,83.3334961h21.6230469V88H14.2587891V83.3334961z   M37.8818359,88V70.9023438h48.1113281V88H37.8818359z M85.9931641,68.9023438H75.5214844v-4.7158203h5.5175781  c0.5527344,0,1-0.4477539,1-1s-0.4472656-1-1-1H68.0039062c-0.5527344,0-1,0.4477539-1,1s0.4472656,1,1,1h5.5175781v4.7158203  H50.4658203v-4.7158203h5.5166016c0.5527344,0,1-0.4477539,1-1s-0.4472656-1-1-1H42.9482422c-0.5527344,0-1,0.4477539-1,1  s0.4472656,1,1,1h5.5175781v4.7158203H37.8818359V41.6802979c0.9592285-0.4528198,1.7794189-1.151123,2.3681641-2.0202637  c1.0562134,1.5592041,2.847168,2.5870361,4.875,2.5870361s3.8187866-1.027832,4.875-2.5870361  c1.0562134,1.5592041,2.847168,2.5870361,4.875,2.5870361s3.8187866-1.027832,4.875-2.5870361  c1.0562134,1.5592041,2.847168,2.5870361,4.875,2.5870361s3.8187866-1.027832,4.875-2.5870361  c1.0562134,1.5592041,2.847168,2.5870361,4.875,2.5870361s3.8187866-1.027832,4.875-2.5870361  c1.0562134,1.5592041,2.847168,2.5870361,4.875,2.5870361c0.6535645,0,1.2804565-0.1112671,1.8681641-0.3081665V68.9023438z"/><text x="0" y="115" fill="#000000" font-size="5px" font-weight="bold" font-family="'Helvetica Neue', Helvetica, Arial-Unicode, Arial, Sans-serif">Created by Made by Made</text><text x="0" y="120" fill="#000000" font-size="5px" font-weight="bold" font-family="'Helvetica Neue', Helvetica, Arial-Unicode, Arial, Sans-serif">from the Noun Project</text></svg>